<?xml version="1.0" standalone="no"?>
<!DOCTYPE svg PUBLIC "-//W3C//DTD SVG 1.1//EN" "http://www.w3.org/Graphics/SVG/1.1/DTD/svg11.dtd" >
<svg xmlns="http://www.w3.org/2000/svg" xmlns:xlink="http://www.w3.org/1999/xlink" version="1.1">
<metadata></metadata>
<defs>
<font id="forma_nuovacorsiva" horiz-adv-x="1224" >
<font-face units-per-em="2048" ascent="1536" descent="-512" />
<missing-glyph horiz-adv-x="532" />
<glyph unicode="&#xfb01;" horiz-adv-x="1163" d="M61 0l195 911h-158l35 164h158l22 113q31 158 118.5 232.5t250.5 74.5h113l-35 -164h-76q-146 0 -176 -143l-23 -113h557l-229 -1075h-188l194 911h-368l-195 -911h-195zM893 1257l41 191h188l-41 -191h-188z" />
<glyph unicode="&#xfb02;" horiz-adv-x="1183" d="M61 0l195 911h-158l35 164h158l22 113q31 159 119 233.5t250 73.5h113l-35 -164h-76q-146 0 -176 -143l-23 -113h240l-35 -164h-239l-195 -911h-195zM637 0l315 1475h191l-316 -1475h-190z" />
<glyph unicode="&#xfb03;" horiz-adv-x="1685" d="M61 0l195 911h-158l35 164h158l22 113q31 158 118.5 232.5t250.5 74.5h113l-35 -164h-76q-146 0 -176 -143l-23 -113h349l22 113q31 158 118.5 232.5t250.5 74.5h112l-34 -164h-76q-146 0 -176 -143l-23 -113h537l-230 -1075h-188l194 911h-348l-194 -911h-195l195 911 h-348l-195 -911h-195zM1415 1257l41 191h189l-41 -191h-189z" />
<glyph unicode="&#xfb04;" horiz-adv-x="1699" d="M61 0l195 911h-158l35 164h158l22 113q31 158 118.5 232.5t250.5 74.5h113l-35 -164h-76q-146 0 -176 -143l-23 -113h349l22 113q31 158 118.5 232.5t250.5 74.5h112l-34 -164h-76q-146 0 -176 -143l-23 -113h240l-35 -164h-240l-194 -911h-195l195 911h-348l-195 -911 h-195zM1153 0l315 1475h191l-316 -1475h-190z" />
<glyph horiz-adv-x="0" />
<glyph horiz-adv-x="682" />
<glyph unicode=" "  horiz-adv-x="532" />
<glyph unicode="&#x09;" horiz-adv-x="532" />
<glyph unicode="&#xa0;" horiz-adv-x="532" />
<glyph unicode="!" horiz-adv-x="606" d="M41 0l43 211h178l-45 -211h-176zM135 424l213 1051h197l-234 -1051h-176z" />
<glyph unicode="&#x22;" horiz-adv-x="698" d="M127 1040l143 232l49 231h189l-49 -231l-185 -232h-147zM420 1040l143 232l49 231h189l-49 -231l-185 -232h-147z" />
<glyph unicode="#" horiz-adv-x="1550" d="M102 385v150h316l65 260h-278v149h315l98 387h166l-98 -387h305l99 387h165l-98 -387h295v-149h-332l-65 -260h295v-150h-332l-96 -385h-166l96 385h-305l-96 -385h-166l96 385h-279zM584 535h305l65 260h-305z" />
<glyph unicode="$" horiz-adv-x="1253" d="M35 492h209q-15 -170 84 -258.5t278 -88.5q82 0 149 24.5t107.5 65t62 89.5t21.5 100q0 62 -38.5 106t-100 70.5t-135.5 50t-148 54.5t-135.5 74t-100 119t-38.5 179q0 85 38 163.5t104.5 138t164.5 96t211 38.5l33 156h160l-37 -170q127 -25 214.5 -95.5t121.5 -158.5 t20 -180h-205q10 113 -66 193.5t-229 80.5q-84 0 -157 -30t-120.5 -92t-47.5 -144q0 -45 24 -80.5t64 -59.5t92.5 -44.5t110 -40t115 -42t110 -54.5t92.5 -72t64 -100.5t24 -135.5q0 -95 -37 -180.5t-104.5 -151.5t-172 -104.5t-231.5 -38.5h-6l-35 -164h-159l36 177 q-217 36 -319 168t-88 342z" />
<glyph unicode="%" horiz-adv-x="1404" d="M61 1137q0 155 96.5 265.5t243.5 110.5q118 0 205.5 -85t87.5 -218q0 -153 -98.5 -263.5t-245.5 -110.5q-116 0 -202.5 84t-86.5 217zM150 0h145l848 1327h-142zM205 1137q0 -74 43.5 -121t101.5 -47q86 0 143.5 71t57.5 170q0 74 -45.5 122t-104.5 48q-86 0 -141 -71.5 t-55 -171.5zM711 270q0 155 96.5 266t243.5 111q117 0 204.5 -85t87.5 -218q0 -154 -98.5 -264.5t-245.5 -110.5q-115 0 -201.5 84t-86.5 217zM854 270q0 -74 43.5 -121t101.5 -47q86 0 143.5 71.5t57.5 170.5q0 74 -45 122t-104 48q-86 0 -141.5 -72t-55.5 -172z" />
<glyph unicode="&#x26;" horiz-adv-x="1419" d="M31 393q0 61 13.5 114.5t35.5 94.5t56.5 77t70.5 62t84 50t90 40.5t96 34.5q-44 68 -67 126t-23 126q0 167 112.5 281t282.5 114q82 0 150 -29t111 -75.5t66.5 -103t23.5 -113.5q0 -69 -21 -126t-54.5 -97.5t-85 -76t-102 -58.5t-116.5 -46l252 -362q108 154 143 350h188 q-50 -287 -225 -506l188 -270h-229l-92 135q-207 -166 -469 -166q-131 0 -242.5 60t-174 157t-62.5 207zM227 434q0 -120 79.5 -201t225.5 -81q184 0 342 133l-303 444q-63 -20 -107 -37t-92.5 -43.5t-77.5 -55t-48 -69.5t-19 -90zM567 1130q1 -35 17.5 -75t32 -64t45.5 -67 q70 22 115.5 41t89 47t64.5 65t21 84q0 75 -54.5 128.5t-129.5 53.5q-82 0 -141.5 -60.5t-59.5 -152.5z" />
<glyph unicode="'" horiz-adv-x="405" d="M127 1040l143 232l49 231h189l-49 -231l-185 -232h-147z" />
<glyph unicode="(" horiz-adv-x="522" d="M72 174q0 389 128 773.5t367 711.5h160q-473 -823 -473 -1616q0 -105 5.5 -215.5t10.5 -168.5l6 -58h-145q-7 28 -16.5 78.5t-26 201t-16.5 293.5z" />
<glyph unicode=")" horiz-adv-x="522" d="M-205 -399q473 823 473 1616q0 105 -5.5 215.5t-10.5 168.5l-6 58h145q7 -28 17 -79t26.5 -201.5t16.5 -293.5q0 -389 -128.5 -773t-367.5 -711h-160z" />
<glyph unicode="*" horiz-adv-x="761" d="M143 1075l213 96l-170 99l84 106l152 -98l39 197h123l-47 -197l196 98l39 -106l-197 -99l154 -96l-84 -106l-153 96l-37 -195h-123l47 195l-197 -96z" />
<glyph unicode="+" horiz-adv-x="1290" d="M113 481v160h422v510h165v-510h478v-160h-478v-481h-165v481h-422z" />
<glyph unicode="," horiz-adv-x="409" d="M-164 -231l144 231l49 231h188l-49 -231l-184 -231h-148z" />
<glyph unicode="-" horiz-adv-x="733" d="M31 506l35 166h555l-35 -166h-555z" />
<glyph unicode="." horiz-adv-x="495" d="M10 0l51 231h199l-51 -231h-199z" />
<glyph unicode="/" horiz-adv-x="1015" d="M-10 0l829 1475h191l-832 -1475h-188z" />
<glyph unicode="0" horiz-adv-x="1277" d="M61 537q0 261 89 484.5t248.5 357.5t353.5 134q219 0 342 -157t123 -414q0 -127 -27 -260t-84.5 -261t-137 -228.5t-195 -162t-249.5 -61.5q-218 0 -340.5 156t-122.5 412zM260 537q0 -177 69 -284.5t195 -107.5q96 0 179 50.5t139.5 132.5t97 187.5t59.5 214t19 212.5 q0 178 -69.5 286.5t-196.5 108.5q-140 0 -253.5 -110t-176 -293t-62.5 -397z" />
<glyph unicode="1" horiz-adv-x="706" d="M84 1075l37 180q102 41 179.5 88.5t174.5 131.5h191l-314 -1475h-196l264 1247h-8q-51 -51 -132 -93.5t-133.5 -60.5t-62.5 -18z" />
<glyph unicode="2" horiz-adv-x="1333" d="M51 0q18 136 65 246.5t111.5 184.5t143 133t160.5 100t163 77t152 72.5t125.5 78.5t86.5 103t32 138q0 82 -62.5 144t-171.5 62q-155 0 -252.5 -96t-97.5 -244h-203q0 105 42 199.5t115.5 164t179.5 110t228 40.5q185 0 304.5 -100t119.5 -262q0 -101 -28.5 -182 t-78 -137t-113.5 -101t-137.5 -80t-148.5 -67.5t-147 -70t-132 -80.5t-105.5 -106t-65.5 -141l756 -2l-41 -184h-1000z" />
<glyph unicode="3" horiz-adv-x="1243" d="M51 362q0 63 10 109h191q-8 -33 -8 -74q0 -107 85 -179.5t214 -72.5q160 0 262 87t102 223q0 108 -73.5 179t-196.5 71q-30 0 -56.5 -1t-53 -3t-40.5 -3l41 197q196 -6 315.5 55.5t119.5 196.5q0 84 -59.5 137t-174.5 53q-150 0 -240 -77t-90 -207h-190q0 128 67 233 t186 166t265 61q89 0 164 -22t125.5 -58t85.5 -82.5t51 -94.5t16 -95q0 -153 -87 -244.5t-210 -107.5v-8q103 -19 168.5 -114.5t65.5 -227.5q0 -142 -78 -255.5t-206 -174t-279 -60.5q-220 0 -356 112t-136 281z" />
<glyph unicode="4" horiz-adv-x="1247" d="M41 389l47 219l819 867h238l-193 -902h213l-32 -184h-220l-82 -389h-192l82 389h-680zM287 573h473l139 656z" />
<glyph unicode="5" horiz-adv-x="1271" d="M61 403h195q17 -258 293 -258q109 0 199.5 61.5t140 158.5t49.5 206q0 137 -67.5 213t-190.5 76q-101 0 -188 -53t-119 -139h-209l239 807h807l-36 -183h-629l-125 -387q110 131 295 131q189 0 305.5 -130t116.5 -335q0 -111 -41 -217t-116 -192.5t-194 -139.5t-262 -53 q-90 0 -171 25t-148 75t-106 136t-38 198z" />
<glyph unicode="6" horiz-adv-x="1277" d="M82 522q0 138 25.5 274.5t81.5 266.5t135.5 229.5t197.5 160t258 60.5q186 0 306.5 -117.5t105.5 -281.5h-188q0 105 -61 166t-183 61q-147 0 -270.5 -137t-151.5 -336h8q126 139 328 136q188 -3 309 -138.5t121 -337.5q0 -146 -67 -272.5t-195.5 -206.5t-290.5 -80 q-146 0 -254.5 77t-161.5 201t-53 275zM291 451q0 -137 83.5 -222.5t194.5 -85.5q149 0 241.5 114t92.5 278q0 140 -79.5 218t-192.5 78q-161 0 -250.5 -102t-89.5 -278z" />
<glyph unicode="7" horiz-adv-x="940" d="M43 0q25 81 56.5 161t73.5 163.5t77 150t91 154.5t89 140t98.5 143.5t92.5 128.5t97 131t87 118h-701l39 185h899l-38 -189q-93 -126 -163.5 -224.5t-165.5 -241.5t-166 -266.5t-142.5 -271t-118.5 -282.5h-205z" />
<glyph unicode="8" horiz-adv-x="1296" d="M61 377q0 153 109.5 268t282.5 141v9q-69 34 -125 107.5t-56 172.5q0 132 71.5 233t189.5 153t262 52q209 0 324.5 -103.5t115.5 -262.5q0 -125 -94 -237t-230 -142v-8q73 -32 120.5 -70.5t77.5 -103.5t30 -154q0 -113 -48.5 -203t-131.5 -146t-188.5 -85t-225.5 -29 q-135 0 -243.5 46.5t-174.5 140.5t-66 221zM264 383q0 -118 88 -183t219 -65q68 0 132 19t117 55.5t85.5 97.5t32.5 137q0 113 -85 180.5t-224 67.5q-69 0 -132.5 -19t-116.5 -55.5t-84.5 -97t-31.5 -137.5zM471 1075q0 -106 74 -163.5t186 -57.5q124 0 215.5 77t91.5 195 q0 110 -72 167t-188 57q-130 0 -218.5 -73t-88.5 -202z" />
<glyph unicode="9" horiz-adv-x="1288" d="M102 369h189q0 -105 61 -166.5t183 -61.5q147 0 270 136.5t151 336.5h-8q-64 -67 -141 -101t-186 -34q-187 0 -309 136t-122 339q0 146 67 272.5t195.5 206.5t290.5 80q110 0 200.5 -44.5t148.5 -120.5t89 -175.5t31 -211.5q0 -138 -25.5 -275t-81.5 -267t-135.5 -229.5 t-197.5 -160t-258 -60.5q-186 0 -306.5 118t-105.5 282zM391 948q0 -140 80 -218.5t193 -78.5q161 0 250.5 102t89.5 279q0 137 -84 222t-195 85q-150 0 -242 -114t-92 -277z" />
<glyph unicode=":" horiz-adv-x="495" d="M10 0l49 231h199l-49 -231h-199zM176 772l49 232h199l-49 -232h-199z" />
<glyph unicode=";" horiz-adv-x="501" d="M-117 -231l144 231l49 231h188l-49 -231l-184 -231h-148zM186 772l50 232h198l-49 -232h-199z" />
<glyph unicode="&#x3c;" horiz-adv-x="983" d="M72 500v174l839 418v-191l-635 -309v-8l635 -310v-190z" />
<glyph unicode="=" horiz-adv-x="1214" d="M133 309v160h948v-160h-948zM133 709v155h948v-155h-948z" />
<glyph unicode="&#x3e;" horiz-adv-x="983" d="M72 84v190l635 310v8l-635 309v191l839 -418v-174z" />
<glyph unicode="?" horiz-adv-x="1112" d="M123 991q22 109 68.5 202t115.5 165.5t166 113.5t211 41q200 0 319 -102.5t119 -259.5q0 -78 -24.5 -143t-64.5 -112t-89.5 -89.5t-102.5 -84t-99.5 -84.5t-84 -102.5t-53.5 -127.5h-182q18 91 56 164.5t83 121.5t95.5 89t97 76t84 72t59.5 88.5t21 115.5 q-1 89 -73 145.5t-175 56.5q-145 0 -234.5 -89.5t-124.5 -256.5h-188zM350 0l43 211h178l-43 -211h-178z" />
<glyph unicode="@" horiz-adv-x="1884" d="M92 674q0 244 112.5 435.5t313.5 297.5t455 106q167 0 318.5 -65t261 -174.5t174.5 -261t65 -318.5q0 -169 -46 -301t-136.5 -209.5t-212.5 -77.5q-87 0 -153.5 58t-76.5 125q-54 -62 -134 -104t-161 -42q-188 0 -303.5 126t-115.5 341q0 136 56.5 255.5t156.5 192 t219 72.5q95 0 175 -34t120 -78l12 92h178l-61 -717q-7 -57 24 -100t76 -43q91 0 154 125.5t63 318.5q0 182 -87.5 337t-238 245t-327.5 90q-149 0 -280.5 -50.5t-227.5 -140.5t-151.5 -220t-55.5 -281q0 -165 54.5 -304.5t147.5 -232.5t215 -144.5t257 -51.5q119 0 206 28 t175 78l94 -123q-109 -65 -212.5 -98t-262.5 -33q-176 0 -330.5 63t-267 176t-177.5 279t-65 363zM618 596q0 -145 75 -228t196 -83q83 0 151 56t104 143.5t36 185.5q0 155 -78 235t-191 80q-87 0 -155 -55t-103 -143t-35 -191z" />
<glyph unicode="A" horiz-adv-x="1359" d="M-162 0l879 1475h246l235 -1475h-207l-67 442h-605l-253 -442h-228zM424 625h471l-96 647h-8z" />
<glyph unicode="B" horiz-adv-x="1445" d="M31 0l313 1475h602q207 0 312.5 -77t105.5 -245q0 -145 -98 -250.5t-219 -118.5v-8q217 -58 217 -295q0 -156 -77 -266.5t-206.5 -162.5t-298.5 -52h-651zM272 170h408q99 0 182.5 32t139 103t55.5 170q0 101 -62.5 160t-173.5 59h-438zM420 864h395q51 0 97.5 7.5 t92.5 27t79.5 48.5t54 75.5t20.5 105.5q0 83 -52 130t-157 47h-438z" />
<glyph unicode="C" horiz-adv-x="1488" d="M72 612q0 145 37 280.5t107.5 247.5t167 196t221.5 130.5t265 46.5q94 0 179.5 -18.5t161.5 -60t131 -100.5q56 -60 86 -148q27 -78 27 -170q0 -12 -1 -25h-213q2 19 2 37q0 127 -92 211q-105 96 -279 96q-131 -6 -242 -65t-186 -156.5t-117 -227t-42 -274.5 q0 -198 121 -331.5t307 -133.5q105 0 205.5 51.5t166.5 136.5t76 177h213q-13 -101 -65.5 -197.5t-136 -173.5t-203.5 -124.5t-256 -47.5q-187 0 -334 85t-227 231.5t-80 326.5z" />
<glyph unicode="D" horiz-adv-x="1536" d="M31 0l313 1475h475q321 0 483 -155.5t162 -430.5q0 -251 -106 -452t-309 -319t-469 -118h-549zM272 172h291q205 0 363 95t241.5 258t83.5 366q0 197 -106 304.5t-330 107.5h-303z" />
<glyph unicode="E" horiz-adv-x="1245" d="M31 0l313 1475h911l-38 -181h-707l-90 -424h696l-39 -182h-696l-107 -508h738l-39 -180h-942z" />
<glyph unicode="F" horiz-adv-x="1214" d="M31 0l313 1475h932l-39 -181h-727l-100 -475h675l-38 -182h-676l-135 -637h-205z" />
<glyph unicode="G" horiz-adv-x="1540" d="M72 612q0 186 58.5 350.5t164 286.5t263 193t345.5 71q153 0 282 -57t207 -166q72 -101 72 -228v-20h-213v10q0 121 -97 200q-102 83 -251 83q-184 0 -326 -97.5t-217 -261.5t-75 -364q0 -198 121.5 -331.5t306.5 -133.5q182 0 325.5 119.5t178.5 298.5h-476l39 183h668 q-7 -161 -61.5 -303t-147.5 -248t-229 -167t-297 -61q-187 0 -334 85t-227 231.5t-80 326.5z" />
<glyph unicode="H" horiz-adv-x="1552" d="M31 0l313 1475h205l-129 -607h768l129 607h205l-314 -1475h-204l145 688h-768l-145 -688h-205z" />
<glyph unicode="I" horiz-adv-x="583" d="M31 0l313 1475h209l-313 -1475h-209z" />
<glyph unicode="J" horiz-adv-x="1130" d="M2 440l14 72h203q-22 -104 -22 -176q0 -84 49.5 -135t142.5 -51q131 0 202.5 71.5t106.5 235.5l217 1018h205l-221 -1055q-50 -234 -177 -342.5t-333 -108.5q-215 0 -321 133q-77 97 -77 232q0 50 11 106z" />
<glyph unicode="K" horiz-adv-x="1357" d="M31 0l313 1475h209l-147 -691l718 691h285l-651 -621l420 -854h-236l-346 711l-258 -244l-98 -467h-209z" />
<glyph unicode="L" horiz-adv-x="1134" d="M31 0l313 1475h205l-275 -1293h697l-39 -182h-901z" />
<glyph unicode="M" horiz-adv-x="1890" d="M31 0l313 1475h268l236 -1158h8l715 1158h289l-314 -1475h-203l248 1161h-8l-713 -1161h-143l-242 1159h-8l-244 -1159h-202z" />
<glyph unicode="N" horiz-adv-x="1599" d="M31 0l313 1475h225l535 -1190h8l252 1190h205l-314 -1475h-231l-530 1180h-9l-249 -1180h-205z" />
<glyph unicode="O" horiz-adv-x="1615" d="M72 616q0 191 61 356.5t169.5 285t264.5 187.5t340 68q279 0 458 -177.5t179 -463.5q0 -190 -60 -356.5t-167 -287t-262 -190t-338 -69.5t-330 80.5t-231 228.5t-84 338zM285 616q0 -209 122 -339t310 -130q136 0 251.5 56t194.5 152.5t123.5 230t44.5 286.5 q0 206 -119 334.5t-305 128.5q-182 0 -324.5 -93.5t-220 -257t-77.5 -368.5z" />
<glyph unicode="P" horiz-adv-x="1333" d="M31 0l313 1475h553q204 0 320 -110t116 -292q0 -214 -158.5 -351.5t-394.5 -137.5h-420l-124 -584h-205zM397 758h383q150 0 249 87.5t99 227.5q0 107 -59 167t-172 60h-385z" />
<glyph unicode="Q" horiz-adv-x="1658" d="M72 616q0 191 61 356.5t169.5 285t264.5 187.5t340 68q279 0 458 -177.5t179 -463.5q0 -209 -79 -394.5t-214 -311.5l-2 -8q48 7 102 11.5t83 5.5l30 1l-39 -176l-421 18q-139 -49 -287 -49q-183 0 -330 80.5t-231 228.5t-84 338zM285 616q0 -209 122 -339t310 -130 q136 0 251.5 56t194.5 152.5t123.5 230t44.5 286.5q0 206 -119 334.5t-305 128.5q-182 0 -324.5 -93.5t-220 -257t-77.5 -368.5z" />
<glyph unicode="R" horiz-adv-x="1439" d="M31 0l313 1475h580q231 0 353 -101.5t122 -269.5q0 -192 -138.5 -319.5t-355.5 -151.5l320 -633h-230l-309 627h-317l-133 -627h-205zM406 801h428q151 0 255.5 83.5t104.5 200.5q0 97 -63.5 156t-169.5 59h-449z" />
<glyph unicode="S" horiz-adv-x="1374" d="M2 492h209q-1 -17 -1 -32q0 -66 23 -120q29 -67 85.5 -109t132 -64t163.5 -22q164 0 272.5 86.5t108.5 192.5q0 49 -26.5 86.5t-71.5 62t-103.5 45t-123 39t-129 40.5t-123 54t-103.5 74t-71.5 106.5t-26.5 145.5q0 115 76.5 215.5t208.5 160.5t286 60q132 0 242 -40.5 t177.5 -104.5t100.5 -144q24 -59 24 -117q0 -21 -3 -42h-205q1 10 1 19q0 96 -86 172q-94 82 -251 83q-85 0 -167.5 -30t-140.5 -92.5t-58 -143.5q0 -50 33.5 -89t88 -62.5t124.5 -48t143 -45t143 -54t124.5 -74t88 -106.5t33.5 -150q0 -126 -73 -234t-208.5 -174.5 t-304.5 -66.5q-304 1 -466 141q-148 129 -147 342q0 19 1 40z" />
<glyph unicode="T" horiz-adv-x="1124" d="M133 1294l39 181h1085l-38 -181h-441l-274 -1294h-205l274 1294h-440z" />
<glyph unicode="U" horiz-adv-x="1480" d="M125 508l207 967h205l-211 -1004q-9 -41 -9 -74q0 -113 83.5 -180t217.5 -67q178 0 272.5 78t135.5 249l240 998h204l-245 -1039q-57 -238 -206.5 -352.5t-400.5 -114.5q-124 0 -227 39.5t-171 109.5q-68 68 -94 170q-14 52 -13 109q0 54 12 111z" />
<glyph unicode="V" horiz-adv-x="1292" d="M154 1475h206l156 -1250h8l713 1250h219l-864 -1475h-238z" />
<glyph unicode="W" horiz-adv-x="1875" d="M184 1475h199l55 -1203h8l523 1203h254l-2 -1205h8l575 1205h205l-715 -1475h-247l-5 1194h-8l-516 -1194h-252z" />
<glyph unicode="X" horiz-adv-x="1304" d="M-123 0l678 768l-317 707h219l241 -551l478 551h251l-645 -727l338 -748h-221l-256 590l-514 -590h-252z" />
<glyph unicode="Y" horiz-adv-x="1292" d="M186 1475h211l213 -779h8l568 779h250l-766 -1002l-101 -473h-204l102 485z" />
<glyph unicode="Z" horiz-adv-x="1271" d="M-61 0l38 182l1049 1112h-776l39 181h1034l-39 -181l-1048 -1112h845l-39 -182h-1103z" />
<glyph unicode="[" horiz-adv-x="528" d="M-35 -274l410 1937h330l-33 -154h-164l-346 -1630h164l-33 -153h-328z" />
<glyph unicode="\" horiz-adv-x="890" d="M0 1475h190l701 -1475h-189z" />
<glyph unicode="]" horiz-adv-x="532" d="M-205 -274l33 153h164l346 1630h-164l33 154h328l-410 -1937h-330z" />
<glyph unicode="^" horiz-adv-x="1062" d="M51 725l398 729h165l398 -729h-199l-281 530l-282 -530h-199z" />
<glyph unicode="_" horiz-adv-x="1124" d="M20 -162l35 160h1049l-35 -160h-1049z" />
<glyph unicode="`" horiz-adv-x="622" d="M174 1315l35 160l444 -220l-26 -112z" />
<glyph unicode="a" horiz-adv-x="1239" d="M20 446q0 184 76.5 336t206 238t283.5 86q110 0 206.5 -44.5t131.5 -123.5h8l29 137h186l-227 -1075h-187l29 135h-8q-44 -74 -137.5 -120t-182.5 -46q-202 0 -308 128.5t-106 348.5zM215 440q0 -57 13.5 -108.5t42 -97t78.5 -72.5t116 -27q105 0 196.5 71.5t145 190 t53.5 252.5q0 131 -66.5 211t-201.5 80q-88 0 -162 -45.5t-119.5 -119t-70.5 -160.5t-25 -175z" />
<glyph unicode="b" horiz-adv-x="1222" d="M-20 0l315 1475h186l-106 -502h8q109 133 313 133q186 0 300 -136t114 -339q0 -145 -44.5 -269.5t-121 -210t-180 -134t-219.5 -48.5q-112 0 -201.5 44t-136.5 141h-8l-33 -154h-186zM268 428q0 -134 77.5 -213.5t193.5 -79.5q88 0 161.5 44t119 114.5t70.5 154.5t25 168 q0 65 -15 120.5t-46.5 102.5t-88 74t-132.5 27q-105 0 -189.5 -71.5t-130 -188t-45.5 -252.5z" />
<glyph unicode="c" horiz-adv-x="1138" d="M20 446q0 137 45.5 259.5t123.5 210t187.5 139t231.5 51.5q199 0 311 -107t117 -288l-192 2q-4 112 -68.5 171.5t-165.5 59.5q-108 0 -199.5 -66t-144.5 -180.5t-53 -251.5q0 -141 81 -228t204 -87q114 0 194.5 71.5t108.5 190.5h192q-31 -188 -167 -306t-328 -118 q-207 0 -342.5 132t-135.5 345z" />
<glyph unicode="d" horiz-adv-x="1239" d="M20 446q0 184 76.5 336t206 238t283.5 86q110 0 207 -44.5t133 -123.5h8l115 537h186l-315 -1475h-187l29 135h-8q-44 -74 -137.5 -120t-182.5 -46q-202 0 -308 128.5t-106 348.5zM215 440q0 -57 13.5 -108.5t42 -97t78.5 -72.5t116 -27q105 0 196.5 71.5t145 190 t53.5 252.5q0 131 -66.5 211t-201.5 80q-88 0 -162 -45.5t-119.5 -119t-70.5 -160.5t-25 -175z" />
<glyph unicode="e" horiz-adv-x="1171" d="M20 446q0 188 76.5 339t213 236t308.5 85q86 -1 158 -25t124 -65t88 -96q38 -56 54 -121q15 -60 15 -125q-1 -6 -1 -12q-2 -72 -22 -146h-817q-4 -46 -4 -70q0 -141 81 -228t204 -87q117 0 196 61.5t113 165.5h197q-46 -178 -177 -283.5t-329 -105.5q-207 0 -342.5 132 t-135.5 345zM252 662h616q3 24 3 47q0 42 -11 78q-17 55 -54 88.5t-85 51t-103 17.5q-132 0 -226 -79t-140 -203z" />
<glyph unicode="f" horiz-adv-x="692" d="M61 0l195 911h-158l35 164h158l22 113q31 159 119 234q87 73 246 73h4h113l-35 -164h-76q-146 0 -176 -143l-23 -113h240l-35 -164h-239l-195 -911h-195z" />
<glyph unicode="g" horiz-adv-x="1230" d="M-92 -78h194q23 -71 92.5 -114.5t157.5 -43.5q147 0 248.5 77t134.5 227l15 59h-9q-105 -137 -299 -137q-200 0 -308.5 130.5t-108.5 336.5q0 138 45.5 259.5t122.5 206.5t181.5 134t219.5 49q110 0 200 -45.5t119 -130.5h9l30 145h187l-205 -960q-28 -138 -83.5 -239.5 t-133 -160.5t-168 -86.5t-197.5 -27.5q-120 0 -214.5 33.5t-157 107.5t-72.5 180zM219 451q0 -56 14.5 -107t43 -94t79.5 -68.5t117 -25.5q105 0 192 66t136 179t49 248q0 291 -250 291q-87 0 -160.5 -44t-120.5 -115t-73.5 -157t-26.5 -173z" />
<glyph unicode="h" horiz-adv-x="1220" d="M10 0l316 1475h190l-121 -560h8q123 191 363 191q150 0 225.5 -84.5t75.5 -233.5q0 -46 -20 -149l-136 -639h-190l137 651q19 93 19 113q0 82 -42 129t-128 47q-107 0 -203.5 -85.5t-153.5 -207.5q-24 -51 -51 -178q-14 -63 -98 -469h-191z" />
<glyph unicode="i" horiz-adv-x="516" d="M8 0l230 1075h188l-229 -1075h-189zM276 1257l41 191h189l-41 -191h-189z" />
<glyph unicode="j" horiz-adv-x="516" d="M-29 -369l305 1444h189l-307 -1444h-187zM315 1257l41 191h189l-41 -191h-189z" />
<glyph unicode="k" horiz-adv-x="1050" d="M10 0l314 1475h190l-172 -818l455 418h274l-463 -411l316 -664h-226l-239 543l-174 -144l-84 -399h-191z" />
<glyph unicode="l" horiz-adv-x="534" d="M20 0l316 1475h190l-315 -1475h-191z" />
<glyph unicode="m" horiz-adv-x="1863" d="M10 0l228 1075h186l-33 -160h8q61 99 147 145t206 46q110 0 183 -55t93 -162h8q51 94 149 155.5t236 61.5q289 0 289 -318q0 -46 -20 -149l-136 -639h-190l137 651q19 93 19 113q0 85 -35 130.5t-119 45.5q-73 0 -137.5 -38.5t-111 -103.5t-80 -140.5t-54.5 -159.5 l-104 -498h-191l137 651q19 93 19 113q0 85 -35 130.5t-119 45.5q-61 0 -116.5 -28t-97.5 -74t-77.5 -108t-59 -127t-38.5 -134q-50 -227 -100 -469h-191z" />
<glyph unicode="n" horiz-adv-x="1220" d="M10 0l228 1075h186l-33 -160h8q47 88 146 139.5t219 51.5q139 0 221 -78t82 -240q0 -46 -20 -149l-136 -639h-190l137 651q19 93 19 113q0 82 -42 129t-128 47q-107 0 -202.5 -85t-152.5 -208q-24 -51 -51 -178q-50 -227 -100 -469h-191z" />
<glyph unicode="o" d="M20 446q0 189 77 339t218.5 235.5t323.5 85.5q208 0 340.5 -129t132.5 -342q0 -189 -75.5 -340t-216.5 -238.5t-322 -87.5q-207 0 -342.5 132t-135.5 345zM213 446q0 -141 81 -228t204 -87q188 0 305 143t117 361q0 139 -79 224t-202 85q-189 0 -307.5 -140t-118.5 -358z " />
<glyph unicode="p" horiz-adv-x="1226" d="M-96 -369l309 1444h186l-28 -135h8q44 74 137 120t182 46q105 0 186 -36.5t130 -100.5t73.5 -147t24.5 -181q0 -199 -74.5 -353.5t-201 -236.5t-281.5 -82q-111 0 -211.5 44.5t-136.5 123.5h-8l-109 -506h-186zM272 426q0 -131 67 -211t202 -80q116 0 204 73.5 t130.5 185.5t42.5 241q0 57 -13.5 108.5t-42 97t-78.5 72.5t-116 27q-105 0 -197 -71.5t-145.5 -190t-53.5 -252.5z" />
<glyph unicode="q" horiz-adv-x="1251" d="M14 446q0 184 77.5 336t208 238t284.5 86q113 0 212 -46t128 -130h8l31 145h186l-307 -1444h-187l105 496h-8q-57 -74 -144.5 -116t-175.5 -42q-134 0 -230 65t-142 171t-46 241zM209 440q0 -44 8.5 -86.5t28 -82.5t48.5 -70t72.5 -48t96.5 -18q105 0 197 71.5t146 190 t54 252.5q0 130 -67.5 210.5t-202.5 80.5q-70 0 -131.5 -30t-106.5 -80t-77.5 -115t-49 -135.5t-16.5 -139.5z" />
<glyph unicode="r" horiz-adv-x="847" d="M10 0l228 1075h184l-41 -192h8q64 104 165 163.5t220 59.5q39 0 84 -10l-39 -185q-31 7 -67 7q-155 0 -282.5 -121t-164.5 -295l-106 -502h-189z" />
<glyph unicode="s" horiz-adv-x="1077" d="M-18 356h176q1 -59 24 -103t61 -69.5t84 -38t99 -12.5q130 0 213.5 49.5t83.5 130.5q0 44 -34 74.5t-88 47.5t-119.5 31.5t-131 35.5t-119.5 52t-88 87.5t-34 134.5q0 98 68.5 174.5t176 116t230.5 39.5q82 0 159.5 -24t136.5 -66q58 -42 90 -106q25 -51 24 -108 q0 -15 -1 -30h-182v9q0 47 -37 85q-41 41 -95.5 59.5t-107.5 18.5q-120 0 -195 -41.5t-75 -126.5q0 -42 34 -70.5t88 -44t119.5 -29t131 -33t119.5 -48t88 -81t34 -126.5q0 -175 -138.5 -275t-358.5 -100q-98 0 -178.5 23.5t-140.5 70t-91 121.5q-27 65 -27 145q0 14 1 27z " />
<glyph unicode="t" horiz-adv-x="708" d="M92 238l139 673h-135l35 164h143l54 256h182l-53 -256h231l-35 -164h-231l-135 -643q-8 -37 -8 -63q0 -30 11 -43q21 -25 85 -25q50 0 129 17l-35 -164q-131 -21 -162 -21q-136 1 -189 71q-35 47 -35 118q0 37 9 80z" />
<glyph unicode="u" d="M66 287q0 47 20 149l135 639h191l-138 -651q-18 -88 -18 -113q0 -82 42 -131t128 -49q71 0 137 36t115 94t83.5 125t51.5 134q25 112 119 555h190l-227 -1075h-186l32 160h-8q-123 -191 -366 -191q-150 0 -225.5 84.5t-75.5 233.5z" />
<glyph unicode="v" horiz-adv-x="1024" d="M72 1075h196l97 -860h8l469 860h213l-619 -1075h-205z" />
<glyph unicode="w" horiz-adv-x="1613" d="M82 1075h188l49 -846h9l391 846h270l31 -846h8l402 846h204l-534 -1075h-240l-35 895h-8l-411 -895h-240z" />
<glyph unicode="x" horiz-adv-x="1079" d="M-133 0l528 565l-260 510h209l180 -366l328 366h248l-484 -516l287 -559h-209l-211 412l-372 -412h-244z" />
<glyph unicode="y" horiz-adv-x="1071" d="M72 -369l198 336l-198 1108h204l134 -858h8l463 858h221l-819 -1444h-211z" />
<glyph unicode="z" horiz-adv-x="1034" d="M-61 0l30 154l742 757h-541l35 164h788l-32 -153l-744 -758h604l-35 -164h-847z" />
<glyph unicode="{" horiz-adv-x="624" d="M61 655l37 162q76 0 124.5 40.5t62.5 111.5l86 397q62 291 428 291l-33 -150q-100 0 -156 -29t-73 -112l-88 -414q-21 -101 -81 -160t-135 -59l-2 -6q73 0 101.5 -64t7.5 -161l-94 -461q-19 -91 30.5 -128.5t143.5 -37.5l-39 -149q-171 -3 -246.5 88t-42.5 245l92 443 q13 64 -19.5 108.5t-103.5 44.5z" />
<glyph unicode="|" horiz-adv-x="694" d="M84 -274l412 1931h166l-414 -1931h-164z" />
<glyph unicode="}" horiz-adv-x="614" d="M-205 -279l33 150q100 0 156 29t73 112l88 414q21 101 80.5 160t134.5 59l2 6q-73 0 -101 64.5t-7 161.5l94 460q19 91 -30.5 128.5t-143.5 37.5l39 150q171 3 246.5 -88.5t42.5 -245.5l-92 -442q-13 -65 19 -109.5t103 -44.5l-36 -162q-77 0 -125 -40.5t-62 -110.5 l-86 -398q-62 -291 -428 -291z" />
<glyph unicode="~" horiz-adv-x="1310" d="M113 549q48 86 132.5 141t192.5 55q47 0 103 -21.5t99 -48t94 -48t89 -21.5q72 0 123 34.5t74 78.5l117 -94q-35 -73 -119.5 -132t-196.5 -59q-52 0 -108 22t-95.5 48.5t-89.5 48.5t-92 22q-68 0 -116 -30t-91 -90z" />
<glyph unicode="&#xa1;" horiz-adv-x="606" d="M41 -399l233 1050h177l-213 -1050h-197zM324 864l45 211h176l-43 -211h-178z" />
<glyph unicode="&#xa2;" horiz-adv-x="1138" d="M20 446q0 173 71 319.5t195.5 236.5t276.5 102l35 166h156l-37 -174q150 -27 232 -130t87 -257l-192 2q-4 112 -69 172.5t-165 60.5q-108 0 -199.5 -66t-144.5 -180.5t-53 -251.5q0 -141 81 -228t204 -87q114 0 194.5 70.5t108.5 189.5h192q-31 -187 -167 -304.5 t-328 -117.5h-15l-34 -164h-156l39 191q-142 45 -227 164.5t-85 285.5z" />
<glyph unicode="&#xa3;" horiz-adv-x="1335" d="M0 0l29 193q54 14 105 37t97.5 55.5t74.5 77t28 94.5q0 54 -23 118h-248l39 177h136q-48 121 -48 239q0 236 164 379t422 143q124 0 230 -52.5t166.5 -140t60.5 -187.5q0 -48 -8 -89h-197q10 56 -1.5 107.5t-43 94t-90.5 68t-137 25.5q-73 0 -137.5 -19.5t-117 -57.5 t-83.5 -101.5t-31 -144.5q0 -106 66 -264h473l-39 -177h-373q14 -65 14 -110q0 -69 -37.5 -132t-80.5 -100q66 3 194 -21t197 -24q57 0 124 12.5t105 25.5l39 12l-33 -187q-14 -6 -39.5 -14.5t-96.5 -22.5t-134 -14q-72 0 -254 31.5t-242 31.5q-54 0 -121.5 -15.5 t-108.5 -31.5z" />
<glyph unicode="&#xa4;" horiz-adv-x="1210" d="M92 111l141 141q-59 103 -59 240q0 144 70 253l-146 146l119 119l148 -148q104 66 245 66q128 0 238 -60l141 142l119 -121l-135 -137q74 -110 74 -260q0 -138 -64 -244l135 -135l-119 -119l-133 131q-109 -70 -256 -70q-150 0 -260 74l-139 -139zM338 492 q0 -126 70.5 -197.5t197.5 -71.5q122 0 195 77.5t73 191.5q0 126 -71 197t-197 71t-197 -71t-71 -197z" />
<glyph unicode="&#xa5;" horiz-adv-x="1292" d="M131 336l31 147h319l31 146h-319l32 147h226l-224 699h226l186 -678h8l469 678h240l-522 -699h219l-33 -147h-303l-31 -146h303l-31 -147h-303l-71 -336h-205l72 336h-320z" />
<glyph unicode="&#xa6;" horiz-adv-x="694" d="M61 -303l177 817h157l-170 -817h-164zM297 791l170 817h166l-178 -817h-158z" />
<glyph unicode="&#xa7;" horiz-adv-x="1124" d="M0 -104q0 36 6 77h195q-6 -34 -6 -59q0 -81 55.5 -119.5t150.5 -38.5q93 0 163.5 41.5t70.5 122.5q0 68 -39 107q-34 34 -91 68t-186 102q-105 58 -162 128.5t-57 166.5q0 115 82 221.5t199 144.5q-58 36 -94.5 70.5t-63 95.5t-26.5 141q0 141 116 238.5t314 97.5 q129 0 226 -41t145.5 -127t23.5 -205h-195q7 40 7 60q0 81 -56 119.5t-151 38.5q-93 0 -163.5 -41.5t-70.5 -122.5q0 -68 39 -107q34 -34 91 -68t186 -102q105 -58 162 -128.5t57 -166.5q0 -115 -82.5 -221t-198.5 -145q58 -36 94.5 -71t63 -96t26.5 -140 q0 -141 -116 -238.5t-314 -97.5q-113 0 -201.5 30t-144 98t-55.5 167zM293 553q0 -62 32.5 -105.5t104.5 -82.5l78 -43q91 26 159 87t68 140q0 62 -32.5 105.5t-104.5 82.5l-78 43q-91 -26 -159 -87.5t-68 -139.5z" />
<glyph unicode="&#xa8;" horiz-adv-x="761" d="M174 1266l39 190h170l-39 -190h-170zM584 1266l39 190h170l-39 -190h-170z" />
<glyph unicode="&#xa9;" horiz-adv-x="1716" d="M82 631q0 137 39.5 264.5t115 232t179 183t237.5 121.5t283 43q140 0 264.5 -54t212.5 -144.5t139.5 -213.5t51.5 -256q0 -171 -63 -325t-173.5 -267t-271 -179.5t-346.5 -66.5q-140 0 -264.5 53.5t-212.5 143t-139.5 211t-51.5 254.5zM246 631q0 -138 65.5 -256 t182 -188t256.5 -70q200 0 359 93t245 250t86 347q0 139 -65.5 258.5t-182 190.5t-256.5 71q-200 0 -359 -94.5t-245 -253t-86 -348.5zM416 643q0 -176 111 -284.5t282 -108.5q157 0 268.5 97t136.5 251h-159q-22 -98 -88.5 -156.5t-157.5 -58.5q-101 0 -168.5 72.5 t-67.5 187.5q0 170 96 290t230 120q83 0 136.5 -50.5t56.5 -142.5l157 -2q-3 150 -94.5 239t-255.5 89q-134 0 -245 -72t-174.5 -197t-63.5 -274z" />
<glyph unicode="&#xaa;" horiz-adv-x="878" d="M63 1067q0 79 25.5 157t71 142.5t117.5 104.5t157 40q151 0 221 -116l21 98h141l-149 -713h-142l15 72q-92 -92 -199 -92q-121 0 -200 88.5t-79 218.5zM209 1075q0 -86 45.5 -138t118.5 -52q102 0 168.5 94.5t66.5 210.5q0 83 -48 141t-120 58q-55 0 -100.5 -28t-73 -74 t-42.5 -100.5t-15 -111.5z" />
<glyph unicode="&#xab;" horiz-adv-x="890" d="M31 463l301 446h188l-317 -446l143 -463h-168zM412 463l301 446h188l-317 -446l143 -463h-168z" />
<glyph unicode="&#xac;" horiz-adv-x="1081" d="M51 772l35 166h852l-88 -424h-170l53 258h-682z" />
<glyph unicode="&#xad;" horiz-adv-x="733" d="M72 506l34 166h556l-35 -166h-555z" />
<glyph unicode="&#xae;" horiz-adv-x="1716" d="M82 631q0 137 39.5 264.5t115 232t179 183t237.5 121.5t283 43q140 0 264.5 -54t212.5 -144.5t139.5 -213.5t51.5 -256q0 -171 -63 -325t-173.5 -267t-271 -179.5t-346.5 -66.5q-140 0 -264.5 53.5t-212.5 143t-139.5 211t-51.5 254.5zM246 631q0 -138 65.5 -256 t182 -188t256.5 -70q200 0 359 93t245 250t86 347q0 139 -65.5 258.5t-182 190.5t-256.5 71q-200 0 -359 -94.5t-245 -253t-86 -348.5zM442 311l181 850h333q133 0 204 -58t71 -155q0 -110 -76.5 -184t-187.5 -88l184 -365h-174l-178 361h-121l-78 -361h-158zM709 813h196 q69 0 117.5 36t48.5 87q0 38 -25.5 61t-68.5 23h-223z" />
<glyph unicode="&#xaf;" horiz-adv-x="741" d="M174 1266l35 164h563l-35 -164h-563z" />
<glyph unicode="&#xb0;" horiz-adv-x="788" d="M82 1145q0 148 101 253t255 105q124 0 217 -81.5t93 -207.5q0 -147 -104 -251.5t-257 -104.5q-122 0 -213.5 80.5t-91.5 206.5zM248 1145q0 -57 41.5 -93t97.5 -36q87 0 141 58t54 140q0 58 -43 95t-101 37q-84 0 -137 -57t-53 -144z" />
<glyph unicode="&#xb1;" horiz-adv-x="1165" d="M133 106v160h895v-160h-895zM135 715v159h365l-4 318h166l-5 -318h375v-159h-375l5 -316h-166l4 316h-365z" />
<glyph unicode="&#xb2;" horiz-adv-x="739" d="M92 786q2 81 29 144.5t67.5 102t89 67.5t96.5 50t88 42t64.5 50t24.5 67q0 30 -23.5 49.5t-70.5 19.5q-43 0 -74 -35t-37 -83h-137q3 114 75 179.5t175 65.5q98 0 163.5 -51.5t65.5 -128.5q0 -47 -14.5 -86t-36 -64.5t-56.5 -51t-64 -40.5t-72 -36.5t-68 -36.5 q-6 -4 -26 -14.5t-29.5 -16.5t-23 -17t-20 -22.5t-8.5 -24.5h326l-27 -129h-477z" />
<glyph unicode="&#xb3;" horiz-adv-x="743" d="M139 1001h137q-7 -44 26 -78t79 -34q65 0 94 35.5t29 79.5q0 41 -27 66.5t-86 25.5l-55 -4l31 125q83 -3 123 21t40 65q0 35 -29.5 55t-60.5 20q-94 0 -94 -96h-137q0 95 67 159t173 64q88 0 155.5 -53.5t67.5 -134.5q0 -64 -43 -104t-101 -48v-4q51 -9 82 -55t31 -111 q0 -104 -75 -169.5t-185 -65.5q-69 0 -130.5 31.5t-94.5 88t-17 121.5z" />
<glyph unicode="&#xb4;" horiz-adv-x="704" d="M174 1143l27 133l534 219l-35 -180z" />
<glyph unicode="&#xb5;" d="M-82 -369l158 756q2 7 5 24t5 25l135 639h191l-54 -252l-100 -483q-2 -10 -2 -29q0 -82 42 -131t128 -49q71 0 137 36t115 94t83.5 125t51.5 134q25 112 119 555h190l-227 -1075h-186l34 160h-8q-126 -191 -368 -191q-109 0 -179 43l-77 -381h-193z" />
<glyph unicode="&#xb6;" horiz-adv-x="1394" d="M123 1006q0 110 48 200.5t127 148t177.5 89t202.5 31.5h696l-35 -166h-198l-361 -1708h-170l361 1708h-191l-360 -1708h-170l227 1079h-18q-145 0 -240.5 93t-95.5 233z" />
<glyph unicode="&#xb7;" horiz-adv-x="495" d="M113 555l51 231h198l-51 -231h-198z" />
<glyph unicode="&#xb8;" horiz-adv-x="616" d="M-70 -350l80 78q24 -38 66 -63t88 -25q39 0 66.5 19t27.5 58q0 25 -22 42.5t-52 17.5q-32 0 -61 -13l-51 80l151 156h142l-117 -123q66 0 109.5 -43t43.5 -106q0 -105 -67 -153t-172 -48q-60 0 -128.5 34.5t-103.5 88.5z" />
<glyph unicode="&#xb9;" horiz-adv-x="546" d="M129 1235l29 137q89 36 168 103h137l-146 -689h-137l115 543h-4q-21 -30 -78.5 -60t-83.5 -34z" />
<glyph unicode="&#xba;" horiz-adv-x="845" d="M61 1075q0 190 114 313t296 123q137 0 225 -86t88 -227q0 -189 -113.5 -314.5t-293.5 -125.5q-137 0 -226.5 88t-89.5 229zM205 1075q0 -85 49 -138.5t123 -53.5q117 0 190.5 90t73.5 225q0 85 -47.5 136.5t-122.5 51.5q-118 0 -192 -87.5t-74 -223.5z" />
<glyph unicode="&#xbb;" horiz-adv-x="886" d="M-10 0l313 461l-141 448h168l145 -448l-299 -461h-186zM369 0l315 461l-141 448h168l145 -448l-299 -461h-188z" />
<glyph unicode="&#xbc;" horiz-adv-x="1333" d="M129 1092l29 137q91 37 168 102h137l-146 -688h-137l115 543h-4q-21 -30 -78.5 -60t-83.5 -34zM135 0h146l847 1327h-141zM668 152l24 124l367 412h186l-90 -420h90l-24 -116h-91l-30 -152h-135l30 152h-327zM829 268h191l61 285z" />
<glyph unicode="&#xbd;" horiz-adv-x="1376" d="M129 1092l29 137q91 37 168 102h137l-146 -688h-137l115 543h-4q-21 -30 -78.5 -60t-83.5 -34zM135 0h146l847 1327h-141zM764 0h477l27 129h-326q2 13 8.5 24.5t20 22t23 16.5t29 16.5t26.5 14.5q25 15 68 37t72 37t64 40t56.5 51t36 65t14.5 86q0 77 -66 128.5 t-164 51.5q-103 0 -174.5 -66t-74.5 -180h137q6 48 37 83.5t73 35.5q47 0 71 -20t24 -50q0 -38 -24.5 -67t-64.5 -50t-88 -41.5t-96.5 -50t-89 -67.5t-67.5 -101.5t-29 -144.5z" />
<glyph unicode="&#xbe;" horiz-adv-x="1460" d="M129 858h137q-7 -44 26 -78.5t79 -34.5q65 0 94 35.5t29 79.5q0 41 -27 66.5t-86 25.5l-55 -4l30 125q83 -3 123.5 21t40.5 65q0 35 -29.5 55.5t-60.5 20.5q-94 0 -94 -96h-137q0 95 66.5 159t172.5 64q88 0 156 -53.5t68 -134.5q0 -64 -43 -104t-101 -48v-4 q51 -9 82 -55t31 -111q0 -104 -75.5 -170t-184.5 -66q-69 0 -130.5 31.5t-94.5 88.5t-17 122zM289 0l852 1327h141l-848 -1327h-145zM795 152l24 124l367 412h186l-90 -420h90l-24 -116h-91l-30 -152h-135l30 152h-327zM956 268h191l61 285z" />
<glyph unicode="&#xbf;" horiz-adv-x="1112" d="M-41 -76q0 -157 119 -259.5t319 -102.5q114 0 211 41t166 113.5t115.5 165.5t68.5 202h-188q-35 -167 -124 -256.5t-234 -89.5q-103 0 -175 57t-73 146q-1 64 20.5 115.5t59 88.5t84 72t97 76t95.5 89t83 121.5t56 164.5h-182q-16 -68 -53.5 -127.5t-84 -102.5t-99.5 -85 t-102.5 -84t-89.5 -89.5t-64.5 -112.5t-24.5 -143zM510 864l43 211h178l-43 -211h-178z" />
<glyph unicode="&#xc0;" horiz-adv-x="1359" d="M-162 0l879 1475h246l235 -1475h-207l-67 442h-605l-253 -442h-228zM424 625h471l-96 647h-8zM659 1694l39 170l410 -178l-29 -123z" />
<glyph unicode="&#xc1;" horiz-adv-x="1359" d="M-162 0l879 1475h246l235 -1475h-207l-67 442h-605l-253 -442h-228zM424 625h471l-96 647h-8zM647 1563l29 143l446 178l-39 -190z" />
<glyph unicode="&#xc2;" horiz-adv-x="1359" d="M-162 0l879 1475h246l235 -1475h-207l-67 442h-605l-253 -442h-228zM424 625h471l-96 647h-8zM526 1583l314 301h112l209 -301h-172l-102 152l-158 -152h-203z" />
<glyph unicode="&#xc3;" horiz-adv-x="1359" d="M-162 0l879 1475h246l235 -1475h-207l-67 442h-605l-253 -442h-228zM424 625h471l-96 647h-8zM508 1651q53 77 122 124.5t138 47.5q37 0 83 -24.5t86 -49.5t64 -25q37 0 85 29.5t75 67.5l101 -88q-39 -69 -106 -120.5t-155 -51.5q-42 0 -83 24.5t-78.5 49t-71.5 24.5 q-82 0 -160 -96z" />
<glyph unicode="&#xc4;" horiz-adv-x="1359" d="M-162 0l879 1475h246l235 -1475h-207l-67 442h-605l-253 -442h-228zM424 625h471l-96 647h-8zM575 1587l39 191h170l-39 -191h-170zM985 1587l39 191h170l-39 -191h-170z" />
<glyph unicode="&#xc5;" horiz-adv-x="1359" d="M-162 0l879 1475h246l235 -1475h-207l-67 442h-605l-253 -442h-228zM424 625h471l-96 647h-8zM653 1747q0 98 72.5 169t177.5 71q85 0 148 -63t63 -142q0 -102 -69.5 -172t-180.5 -70q-85 0 -148 62t-63 145zM782 1755q0 -38 29 -65t66 -27q47 0 78.5 31t31.5 80 q0 35 -27.5 62.5t-66.5 27.5q-44 0 -77.5 -31.5t-33.5 -77.5z" />
<glyph unicode="&#xc6;" horiz-adv-x="1984" d="M-123 0l1104 1475h1034l-39 -181h-706l-90 -424h696l-39 -182h-696l-107 -508h738l-39 -180h-942l94 442h-445l-336 -442h-227zM586 625h338l137 647h-4z" />
<glyph unicode="&#xc7;" horiz-adv-x="1488" d="M72 612q0 145 37 280.5t107.5 247.5t167 196t221.5 130.5t265 46.5q94 0 179.5 -18.5t161.5 -60t131 -101t85.5 -147.5t26.5 -195h-213q15 152 -90 248t-279 96q-131 -6 -242 -65t-186 -156.5t-117 -227t-42 -274.5q0 -198 121 -331.5t307 -133.5q105 0 205.5 51.5 t166.5 136.5t76 177h213q-12 -98 -63 -192.5t-131 -171t-195.5 -125t-245.5 -52.5l-88 -94q66 0 110 -43t44 -106q0 -105 -67 -153t-173 -48q-59 0 -127.5 34.5t-103.5 88.5l80 78q24 -38 65.5 -63t87.5 -25q39 0 67 19t28 58q0 25 -22 42.5t-52 17.5q-33 0 -62 -13l-51 80 l129 133q-240 35 -386 211t-146 424z" />
<glyph unicode="&#xc8;" horiz-adv-x="1245" d="M31 0l313 1475h911l-38 -181h-707l-90 -424h696l-39 -182h-696l-107 -508h738l-39 -180h-942zM602 1694l39 170l410 -178l-29 -123z" />
<glyph unicode="&#xc9;" horiz-adv-x="1245" d="M31 0l313 1475h911l-38 -181h-707l-90 -424h696l-39 -182h-696l-107 -508h738l-39 -180h-942zM590 1563l28 143l447 178l-39 -190z" />
<glyph unicode="&#xca;" horiz-adv-x="1245" d="M31 0l313 1475h911l-38 -181h-707l-90 -424h696l-39 -182h-696l-107 -508h738l-39 -180h-942zM469 1583l313 301h113l209 -301h-172l-103 152l-157 -152h-203z" />
<glyph unicode="&#xcb;" horiz-adv-x="1245" d="M31 0l313 1475h911l-38 -181h-707l-90 -424h696l-39 -182h-696l-107 -508h738l-39 -180h-942zM518 1587l39 191h170l-39 -191h-170zM928 1587l39 191h170l-39 -191h-170z" />
<glyph unicode="&#xcc;" horiz-adv-x="583" d="M31 0l313 1475h209l-313 -1475h-209zM272 1694l39 170l410 -178l-29 -123z" />
<glyph unicode="&#xcd;" horiz-adv-x="583" d="M31 0l313 1475h209l-313 -1475h-209zM260 1563l29 143l446 178l-39 -190z" />
<glyph unicode="&#xce;" horiz-adv-x="583" d="M31 0l313 1475h209l-313 -1475h-209zM139 1583l314 301h112l209 -301h-172l-102 152l-158 -152h-203z" />
<glyph unicode="&#xcf;" horiz-adv-x="583" d="M31 0l313 1475h209l-313 -1475h-209zM188 1587l39 191h170l-39 -191h-170zM598 1587l39 191h170l-39 -191h-170z" />
<glyph unicode="&#xd0;" horiz-adv-x="1536" d="M20 670l35 166h152l137 639h475q321 0 483 -155.5t162 -430.5q0 -251 -106 -452t-309 -319t-469 -118h-549l141 670h-152zM272 172h291q205 0 363 95t241.5 258t83.5 366q0 197 -106 304.5t-330 107.5h-303l-100 -467h198l-35 -166h-198z" />
<glyph unicode="&#xd1;" horiz-adv-x="1599" d="M31 0l313 1475h225l535 -1190h8l252 1190h205l-314 -1475h-231l-530 1180h-9l-249 -1180h-205zM627 1651q53 77 122 124.5t138 47.5q37 0 83 -24.5t86 -49.5t64 -25q37 0 85 29.5t75 67.5l100 -88q-39 -70 -105.5 -121t-154.5 -51q-42 0 -83 24.5t-78.5 49t-71.5 24.5 q-82 0 -160 -96z" />
<glyph unicode="&#xd2;" horiz-adv-x="1615" d="M72 616q0 191 61 356.5t169.5 285t264.5 187.5t340 68q279 0 458 -177.5t179 -463.5q0 -190 -60 -356.5t-167 -287t-262 -190t-338 -69.5t-330 80.5t-231 228.5t-84 338zM285 616q0 -209 122 -339t310 -130q136 0 251.5 56t194.5 152.5t123.5 230t44.5 286.5 q0 206 -119 334.5t-305 128.5q-182 0 -324.5 -93.5t-220 -257t-77.5 -368.5zM788 1694l39 170l410 -178l-29 -123z" />
<glyph unicode="&#xd3;" horiz-adv-x="1615" d="M72 616q0 191 61 356.5t169.5 285t264.5 187.5t340 68q279 0 458 -177.5t179 -463.5q0 -190 -60 -356.5t-167 -287t-262 -190t-338 -69.5t-330 80.5t-231 228.5t-84 338zM285 616q0 -209 122 -339t310 -130q136 0 251.5 56t194.5 152.5t123.5 230t44.5 286.5 q0 206 -119 334.5t-305 128.5q-182 0 -324.5 -93.5t-220 -257t-77.5 -368.5zM774 1563l29 143l446 178l-39 -190z" />
<glyph unicode="&#xd4;" horiz-adv-x="1615" d="M72 616q0 191 61 356.5t169.5 285t264.5 187.5t340 68q279 0 458 -177.5t179 -463.5q0 -190 -60 -356.5t-167 -287t-262 -190t-338 -69.5t-330 80.5t-231 228.5t-84 338zM285 616q0 -209 122 -339t310 -130q136 0 251.5 56t194.5 152.5t123.5 230t44.5 286.5 q0 206 -119 334.5t-305 128.5q-182 0 -324.5 -93.5t-220 -257t-77.5 -368.5zM653 1583l314 301h112l209 -301h-172l-102 152l-158 -152h-203z" />
<glyph unicode="&#xd5;" horiz-adv-x="1615" d="M72 616q0 191 61 356.5t169.5 285t264.5 187.5t340 68q279 0 458 -177.5t179 -463.5q0 -190 -60 -356.5t-167 -287t-262 -190t-338 -69.5t-330 80.5t-231 228.5t-84 338zM285 616q0 -209 122 -339t310 -130q136 0 251.5 56t194.5 152.5t123.5 230t44.5 286.5 q0 206 -119 334.5t-305 128.5q-182 0 -324.5 -93.5t-220 -257t-77.5 -368.5zM635 1651q53 77 122 124.5t138 47.5q37 0 83 -24.5t86 -49.5t64 -25q37 0 85 29.5t75 67.5l101 -88q-39 -69 -106 -120.5t-155 -51.5q-42 0 -83 24.5t-78.5 49t-71.5 24.5q-82 0 -160 -96z" />
<glyph unicode="&#xd6;" horiz-adv-x="1615" d="M72 616q0 191 61 356.5t169.5 285t264.5 187.5t340 68q279 0 458 -177.5t179 -463.5q0 -190 -60 -356.5t-167 -287t-262 -190t-338 -69.5t-330 80.5t-231 228.5t-84 338zM285 616q0 -209 122 -339t310 -130q136 0 251.5 56t194.5 152.5t123.5 230t44.5 286.5 q0 206 -119 334.5t-305 128.5q-182 0 -324.5 -93.5t-220 -257t-77.5 -368.5zM702 1587l39 191h170l-39 -191h-170zM1112 1587l39 191h170l-39 -191h-170z" />
<glyph unicode="&#xd7;" horiz-adv-x="1144" d="M113 229l348 361l-346 356l114 117l344 -356l342 356l115 -115l-346 -358l348 -361l-112 -116l-349 358l-346 -356z" />
<glyph unicode="&#xd8;" horiz-adv-x="1615" d="M72 616q0 191 61 356.5t169.5 285t264.5 187.5t340 68q169 0 307 -69l99 143h190l-160 -231q96 -86 148.5 -210t52.5 -274q0 -190 -60 -356.5t-167 -287t-262 -190t-338 -69.5q-158 0 -287 60l-115 -166h-188l170 248q-106 86 -165.5 216.5t-59.5 288.5zM285 616 q0 -211 125 -342l696 1014q-86 47 -199 47q-182 0 -324.5 -93.5t-220 -257t-77.5 -368.5zM537 184q81 -37 180 -37q136 0 251.5 56t194.5 152.5t123.5 230t44.5 286.5q0 190 -104 316z" />
<glyph unicode="&#xd9;" horiz-adv-x="1480" d="M125 508l207 967h205l-211 -1004q-9 -41 -9 -74q0 -113 83.5 -180t217.5 -67q178 0 272.5 78t135.5 249l240 998h204l-245 -1039q-57 -238 -206.5 -352.5t-400.5 -114.5q-124 0 -227 39.5t-170.5 109t-94 171t-1.5 219.5zM721 1694l39 170l409 -178l-28 -123z" />
<glyph unicode="&#xda;" horiz-adv-x="1480" d="M125 508l207 967h205l-211 -1004q-9 -41 -9 -74q0 -113 83.5 -180t217.5 -67q178 0 272.5 78t135.5 249l240 998h204l-245 -1039q-57 -238 -206.5 -352.5t-400.5 -114.5q-124 0 -227 39.5t-170.5 109t-94 171t-1.5 219.5zM707 1563l28 143l447 178l-39 -190z" />
<glyph unicode="&#xdb;" horiz-adv-x="1480" d="M125 508l207 967h205l-211 -1004q-9 -41 -9 -74q0 -113 83.5 -180t217.5 -67q178 0 272.5 78t135.5 249l240 998h204l-245 -1039q-57 -238 -206.5 -352.5t-400.5 -114.5q-124 0 -227 39.5t-170.5 109t-94 171t-1.5 219.5zM606 1583l314 301h112l209 -301h-172l-102 152 l-158 -152h-203z" />
<glyph unicode="&#xdc;" horiz-adv-x="1480" d="M125 508l207 967h205l-211 -1004q-9 -41 -9 -74q0 -113 83.5 -180t217.5 -67q178 0 272.5 78t135.5 249l240 998h204l-245 -1039q-57 -238 -206.5 -352.5t-400.5 -114.5q-124 0 -227 39.5t-170.5 109t-94 171t-1.5 219.5zM635 1587l39 191h170l-39 -191h-170zM1044 1587 l39 191h170l-39 -191h-170z" />
<glyph unicode="&#xdd;" horiz-adv-x="1292" d="M186 1475h211l213 -779h8l568 779h250l-766 -1002l-101 -473h-204l102 485zM612 1563l29 143l446 178l-38 -190z" />
<glyph unicode="&#xde;" horiz-adv-x="1275" d="M31 0l256 1204l57 271h205l-57 -271h348q204 0 320 -110t116 -291q0 -214 -158.5 -352t-394.5 -138h-420l-67 -313h-205zM340 487h383q150 0 249 87.5t99 228.5q0 107 -59 167t-172 60h-385z" />
<glyph unicode="&#xdf;" horiz-adv-x="1165" d="M20 0l232 1067q44 209 173.5 327.5t340.5 118.5q160 0 254 -87.5t94 -204.5q0 -115 -75.5 -197t-190.5 -100l-4 -17q98 -20 179 -115.5t81 -238.5q0 -126 -54.5 -236.5t-144 -186t-206.5 -118.5t-240 -43q-77 0 -146 17l31 145q57 -14 119 -14q201 0 326.5 126.5 t125.5 313.5q0 136 -91.5 202.5t-284.5 69.5l26 129q53 2 100 9t95 24.5t81.5 43t55 67t21.5 94.5q0 64 -56 107t-129 43q-130 0 -201.5 -73t-99.5 -206l-223 -1067h-189z" />
<glyph unicode="&#xe0;" horiz-adv-x="1239" d="M20 446q0 184 76.5 336t206 238t283.5 86q110 0 206.5 -44.5t131.5 -123.5h8l29 137h186l-227 -1075h-187l29 135h-8q-44 -74 -137.5 -120t-182.5 -46q-202 0 -308 128.5t-106 348.5zM215 440q0 -57 13.5 -108.5t42 -97t78.5 -72.5t116 -27q105 0 196.5 71.5t145 190 t53.5 252.5q0 131 -66.5 211t-201.5 80q-88 0 -162 -45.5t-119.5 -119t-70.5 -160.5t-25 -175zM420 1315l35 160l444 -220l-27 -112z" />
<glyph unicode="&#xe1;" horiz-adv-x="1239" d="M20 446q0 184 76.5 336t206 238t283.5 86q110 0 206.5 -44.5t131.5 -123.5h8l29 137h186l-227 -1075h-187l29 135h-8q-44 -74 -137.5 -120t-182.5 -46q-202 0 -308 128.5t-106 348.5zM215 440q0 -57 13.5 -108.5t42 -97t78.5 -72.5t116 -27q105 0 196.5 71.5t145 190 t53.5 252.5q0 131 -66.5 211t-201.5 80q-88 0 -162 -45.5t-119.5 -119t-70.5 -160.5t-25 -175zM440 1143l27 133l534 219l-34 -180z" />
<glyph unicode="&#xe2;" horiz-adv-x="1239" d="M20 446q0 184 76.5 336t206 238t283.5 86q110 0 206.5 -44.5t131.5 -123.5h8l29 137h186l-227 -1075h-187l29 135h-8q-44 -74 -137.5 -120t-182.5 -46q-202 0 -308 128.5t-106 348.5zM215 440q0 -57 13.5 -108.5t42 -97t78.5 -72.5t116 -27q105 0 196.5 71.5t145 190 t53.5 252.5q0 131 -66.5 211t-201.5 80q-88 0 -162 -45.5t-119.5 -119t-70.5 -160.5t-25 -175zM383 1163l360 342h95l221 -342h-152l-133 203l-217 -203h-174z" />
<glyph unicode="&#xe3;" horiz-adv-x="1239" d="M20 446q0 184 76.5 336t206 238t283.5 86q110 0 206.5 -44.5t131.5 -123.5h8l29 137h186l-227 -1075h-187l29 135h-8q-44 -74 -137.5 -120t-182.5 -46q-202 0 -308 128.5t-106 348.5zM215 440q0 -57 13.5 -108.5t42 -97t78.5 -72.5t116 -27q105 0 196.5 71.5t145 190 t53.5 252.5q0 131 -66.5 211t-201.5 80q-88 0 -162 -45.5t-119.5 -119t-70.5 -160.5t-25 -175zM324 1255q131 193 264 193q42 0 94 -35t99 -69.5t75 -34.5q41 0 85.5 35.5t76.5 80.5l100 -88q-109 -192 -264 -192q-37 0 -77.5 21.5t-69.5 48t-63.5 48t-61.5 21.5 q-38 0 -73.5 -28.5t-84.5 -88.5z" />
<glyph unicode="&#xe4;" horiz-adv-x="1239" d="M20 446q0 184 76.5 336t206 238t283.5 86q110 0 206.5 -44.5t131.5 -123.5h8l29 137h186l-227 -1075h-187l29 135h-8q-44 -74 -137.5 -120t-182.5 -46q-202 0 -308 128.5t-106 348.5zM215 440q0 -57 13.5 -108.5t42 -97t78.5 -72.5t116 -27q105 0 196.5 71.5t145 190 t53.5 252.5q0 131 -66.5 211t-201.5 80q-88 0 -162 -45.5t-119.5 -119t-70.5 -160.5t-25 -175zM369 1266l39 190h170l-39 -190h-170zM778 1266l39 190h170l-39 -190h-170z" />
<glyph unicode="&#xe5;" horiz-adv-x="1239" d="M20 446q0 184 76.5 336t206 238t283.5 86q110 0 206.5 -44.5t131.5 -123.5h8l29 137h186l-227 -1075h-187l29 135h-8q-44 -74 -137.5 -120t-182.5 -46q-202 0 -308 128.5t-106 348.5zM215 440q0 -57 13.5 -108.5t42 -97t78.5 -72.5t116 -27q105 0 196.5 71.5t145 190 t53.5 252.5q0 131 -66.5 211t-201.5 80q-88 0 -162 -45.5t-119.5 -119t-70.5 -160.5t-25 -175zM492 1348q0 98 72 168.5t177 70.5q85 0 148 -63t63 -142q0 -102 -69 -171.5t-181 -69.5q-85 0 -147.5 62t-62.5 145zM621 1356q0 -38 28.5 -65t65.5 -27q47 0 78.5 30.5 t31.5 79.5q0 35 -27.5 62.5t-66.5 27.5q-44 0 -77 -31t-33 -77z" />
<glyph unicode="&#xe6;" horiz-adv-x="1955" d="M-4 268q0 250 319 322l367 80q154 33 154 125q0 86 -66 127t-184 41q-120 0 -185 -45.5t-75 -159.5h-183q12 119 79.5 204t163 123.5t208.5 38.5q142 0 244.5 -50t146.5 -142q169 174 418 174q86 -1 158 -25t124 -65t88.5 -96.5t53 -120.5t15 -137.5t-22.5 -145.5h-818 q-4 -46 -4 -70q0 -141 81 -228t204 -87q117 0 196 61.5t113 165.5h197q-46 -178 -177 -283.5t-329 -105.5q-152 0 -269 74t-171 203q-98 -143 -212 -211t-280 -68q-159 0 -256.5 78.5t-97.5 222.5zM188 258q0 -64 54.5 -101.5t140.5 -37.5q65 0 133 31t127 86t103.5 137.5 t60.5 177.5q-48 -20 -82 -25l-360 -67q-82 -15 -129.5 -67t-47.5 -134zM1036 662h617q9 70 -8 125t-54 88.5t-85 51t-103 17.5q-132 0 -226.5 -79.5t-140.5 -202.5z" />
<glyph unicode="&#xe7;" horiz-adv-x="1138" d="M20 446q0 137 45.5 259.5t123.5 210t187.5 139t231.5 51.5q199 0 311 -107t117 -288l-192 2q-4 112 -68.5 171.5t-165.5 59.5q-108 0 -199.5 -66t-144.5 -180.5t-53 -251.5q0 -141 81 -228t204 -87q114 0 194.5 71.5t108.5 190.5h192q-29 -178 -154 -294t-304 -128 l-89 -94q66 0 110 -43t44 -106q0 -105 -67 -153t-173 -48q-59 0 -127.5 34.5t-103.5 88.5l80 78q24 -38 65.5 -63t87.5 -25q39 0 67 19t28 58q0 25 -22 42.5t-52 17.5q-32 0 -61 -13l-52 80l129 133q-169 30 -274 156.5t-105 312.5z" />
<glyph unicode="&#xe8;" horiz-adv-x="1171" d="M20 446q0 188 76.5 339t213 236t308.5 85q86 -1 158 -25t124 -65t88.5 -96.5t53 -120.5t15 -137.5t-22.5 -145.5h-817q-4 -46 -4 -70q0 -141 81 -228t204 -87q117 0 196 61.5t113 165.5h197q-46 -178 -177 -283.5t-329 -105.5q-207 0 -342.5 132t-135.5 345zM252 662h616 q9 70 -8 125t-54 88.5t-85 51t-103 17.5q-132 0 -226 -79t-140 -203zM449 1315l34 160l445 -220l-27 -112z" />
<glyph unicode="&#xe9;" horiz-adv-x="1171" d="M20 446q0 188 76.5 339t213 236t308.5 85q86 -1 158 -25t124 -65t88.5 -96.5t53 -120.5t15 -137.5t-22.5 -145.5h-817q-4 -46 -4 -70q0 -141 81 -228t204 -87q117 0 196 61.5t113 165.5h197q-46 -178 -177 -283.5t-329 -105.5q-207 0 -342.5 132t-135.5 345zM252 662h616 q9 70 -8 125t-54 88.5t-85 51t-103 17.5q-132 0 -226 -79t-140 -203zM408 1143l26 133l535 219l-35 -180z" />
<glyph unicode="&#xea;" horiz-adv-x="1171" d="M20 446q0 188 76.5 339t213 236t308.5 85q86 -1 158 -25t124 -65t88.5 -96.5t53 -120.5t15 -137.5t-22.5 -145.5h-817q-4 -46 -4 -70q0 -141 81 -228t204 -87q117 0 196 61.5t113 165.5h197q-46 -178 -177 -283.5t-329 -105.5q-207 0 -342.5 132t-135.5 345zM252 662h616 q9 70 -8 125t-54 88.5t-85 51t-103 17.5q-132 0 -226 -79t-140 -203zM350 1163l361 342h94l221 -342h-152l-133 203l-217 -203h-174z" />
<glyph unicode="&#xeb;" horiz-adv-x="1171" d="M20 446q0 188 76.5 339t213 236t308.5 85q86 -1 158 -25t124 -65t88.5 -96.5t53 -120.5t15 -137.5t-22.5 -145.5h-817q-4 -46 -4 -70q0 -141 81 -228t204 -87q117 0 196 61.5t113 165.5h197q-46 -178 -177 -283.5t-329 -105.5q-207 0 -342.5 132t-135.5 345zM252 662h616 q9 70 -8 125t-54 88.5t-85 51t-103 17.5q-132 0 -226 -79t-140 -203zM379 1266l39 190h170l-39 -190h-170zM788 1266l39 190h170l-39 -190h-170z" />
<glyph unicode="&#xec;" horiz-adv-x="516" d="M8 0l230 1075h188l-229 -1075h-189zM121 1315l35 160l444 -220l-27 -112z" />
<glyph unicode="&#xed;" horiz-adv-x="516" d="M8 0l230 1075h188l-229 -1075h-189zM80 1143l26 133l535 219l-35 -180z" />
<glyph unicode="&#xee;" horiz-adv-x="516" d="M8 0l230 1075h188l-229 -1075h-189zM23 1163l360 342h94l221 -342h-151l-133 203l-217 -203h-174z" />
<glyph unicode="&#xef;" horiz-adv-x="516" d="M8 0l230 1075h188l-229 -1075h-189zM51 1266l39 190h170l-39 -190h-170zM461 1266l39 190h170l-39 -190h-170z" />
<glyph unicode="&#xf0;" horiz-adv-x="1288" d="M20 422q0 155 70 286t200 211t292 80q128 0 222.5 -64.5t131.5 -176.5h8q18 105 3.5 219.5t-60.5 204.5l-213 -115l-62 129l189 100q-99 92 -242 109l90 162q199 -41 320 -178l153 84l62 -130l-135 -73q81 -161 81 -365q0 -139 -25 -272t-78.5 -254.5t-129 -212.5 t-185.5 -144.5t-239 -52.5q-94 0 -175 28.5t-143.5 83.5t-98.5 143t-36 198zM231 401q0 -118 70.5 -188t177.5 -70q55 0 119 32t120 85.5t93 134t37 168.5q0 120 -68.5 193t-175.5 73q-166 0 -269.5 -120.5t-103.5 -307.5z" />
<glyph unicode="&#xf1;" horiz-adv-x="1220" d="M10 0l228 1075h186l-33 -160h8q47 88 146 139.5t219 51.5q139 0 221 -78t82 -240q0 -46 -20 -149l-136 -639h-190l137 651q19 93 19 113q0 82 -42 129t-128 47q-107 0 -202.5 -85t-152.5 -208q-24 -51 -51 -178q-50 -227 -100 -469h-191zM315 1255q131 193 265 193 q42 0 94 -35t99 -69.5t75 -34.5q41 0 85.5 35.5t76.5 80.5l100 -88q-109 -192 -264 -192q-37 0 -77.5 21.5t-70 48t-64 48t-61.5 21.5q-38 0 -73 -28.5t-84 -88.5z" />
<glyph unicode="&#xf2;" d="M20 446q0 189 77 339t218.5 235.5t323.5 85.5q208 0 340.5 -129t132.5 -342q0 -189 -75.5 -340t-216.5 -238.5t-322 -87.5q-207 0 -342.5 132t-135.5 345zM213 446q0 -141 81 -228t204 -87q188 0 305 143t117 361q0 139 -79 224t-202 85q-189 0 -307.5 -140t-118.5 -358z M475 1315l35 160l444 -220l-26 -112z" />
<glyph unicode="&#xf3;" d="M20 446q0 189 77 339t218.5 235.5t323.5 85.5q208 0 340.5 -129t132.5 -342q0 -189 -75.5 -340t-216.5 -238.5t-322 -87.5q-207 0 -342.5 132t-135.5 345zM213 446q0 -141 81 -228t204 -87q188 0 305 143t117 361q0 139 -79 224t-202 85q-189 0 -307.5 -140t-118.5 -358z M434 1143l27 133l534 219l-34 -180z" />
<glyph unicode="&#xf4;" d="M20 446q0 189 77 339t218.5 235.5t323.5 85.5q208 0 340.5 -129t132.5 -342q0 -189 -75.5 -340t-216.5 -238.5t-322 -87.5q-207 0 -342.5 132t-135.5 345zM213 446q0 -141 81 -228t204 -87q188 0 305 143t117 361q0 139 -79 224t-202 85q-189 0 -307.5 -140t-118.5 -358z M377 1163l360 342h94l222 -342h-152l-133 203l-217 -203h-174z" />
<glyph unicode="&#xf5;" d="M20 446q0 189 77 339t218.5 235.5t323.5 85.5q208 0 340.5 -129t132.5 -342q0 -189 -75.5 -340t-216.5 -238.5t-322 -87.5q-207 0 -342.5 132t-135.5 345zM213 446q0 -141 81 -228t204 -87q188 0 305 143t117 361q0 139 -79 224t-202 85q-189 0 -307.5 -140t-118.5 -358z M317 1255q131 193 265 193q42 0 94 -35t99 -69.5t75 -34.5q41 0 85.5 35.5t76.5 80.5l100 -88q-109 -192 -264 -192q-37 0 -77.5 21.5t-70 48t-64 48t-61.5 21.5q-38 0 -73 -28.5t-84 -88.5z" />
<glyph unicode="&#xf6;" d="M20 446q0 189 77 339t218.5 235.5t323.5 85.5q208 0 340.5 -129t132.5 -342q0 -189 -75.5 -340t-216.5 -238.5t-322 -87.5q-207 0 -342.5 132t-135.5 345zM213 446q0 -141 81 -228t204 -87q188 0 305 143t117 361q0 139 -79 224t-202 85q-189 0 -307.5 -140t-118.5 -358z M406 1266l38 190h170l-39 -190h-169zM815 1266l39 190h170l-39 -190h-170z" />
<glyph unicode="&#xf7;" horiz-adv-x="1202" d="M133 504h936v168h-936v-168zM489 88v231h199v-231h-199zM489 860v232h199v-232h-199z" />
<glyph unicode="&#xf8;" d="M20 446q0 189 77 339t218.5 235.5t323.5 85.5q116 0 209 -41l70 100h190l-129 -188q133 -130 133 -342q0 -189 -75.5 -340t-216.5 -238.5t-322 -87.5q-95 0 -189 33l-86 -127h-188l141 207q-156 137 -156 364zM213 446q0 -129 68 -213l471 689q-55 22 -113 22 q-189 0 -307.5 -140t-118.5 -358zM408 143q44 -12 90 -12q188 0 305 143t117 361q0 105 -50 184z" />
<glyph unicode="&#xf9;" d="M66 287q0 47 20 149l135 639h191l-138 -651q-18 -88 -18 -113q0 -82 42 -131t128 -49q71 0 137 36t115 94t83.5 125t51.5 134q25 112 119 555h190l-227 -1075h-186l32 160h-8q-123 -191 -366 -191q-150 0 -225.5 84.5t-75.5 233.5zM414 1315l35 160l444 -220l-27 -112z " />
<glyph unicode="&#xfa;" d="M66 287q0 47 20 149l135 639h191l-138 -651q-18 -88 -18 -113q0 -82 42 -131t128 -49q71 0 137 36t115 94t83.5 125t51.5 134q25 112 119 555h190l-227 -1075h-186l32 160h-8q-123 -191 -366 -191q-150 0 -225.5 84.5t-75.5 233.5zM434 1143l27 133l534 219l-34 -180z " />
<glyph unicode="&#xfb;" d="M66 287q0 47 20 149l135 639h191l-138 -651q-18 -88 -18 -113q0 -82 42 -131t128 -49q71 0 137 36t115 94t83.5 125t51.5 134q25 112 119 555h190l-227 -1075h-186l32 160h-8q-123 -191 -366 -191q-150 0 -225.5 84.5t-75.5 233.5zM377 1163l360 342h94l222 -342h-152 l-133 203l-217 -203h-174z" />
<glyph unicode="&#xfc;" d="M66 287q0 47 20 149l135 639h191l-138 -651q-18 -88 -18 -113q0 -82 42 -131t128 -49q71 0 137 36t115 94t83.5 125t51.5 134q25 112 119 555h190l-227 -1075h-186l32 160h-8q-123 -191 -366 -191q-150 0 -225.5 84.5t-75.5 233.5zM406 1266l38 190h170l-39 -190h-169z M815 1266l39 190h170l-39 -190h-170z" />
<glyph unicode="&#xfd;" horiz-adv-x="1036" d="M127 -369l199 336l-199 1108h205l133 -858h8l463 858h221l-819 -1444h-211zM340 1143l27 133l534 219l-35 -180z" />
<glyph unicode="&#xfe;" horiz-adv-x="1456" d="M164 -369l395 1844h186l-106 -502h4q117 133 318 133q186 0 299.5 -136t113.5 -339q0 -145 -44.5 -269.5t-121 -210t-180 -134t-219.5 -48.5q-245 0 -342 185h-4l-113 -523h-186zM532 428q0 -134 77.5 -213.5t193.5 -79.5q71 0 133 29t106 77.5t75.5 110.5t47 129.5 t15.5 134.5q0 65 -15 120.5t-47 102.5t-88.5 74t-132.5 27q-105 0 -189.5 -71.5t-130 -188t-45.5 -252.5z" />
<glyph unicode="&#xff;" horiz-adv-x="1036" d="M127 -369l199 336l-199 1108h205l133 -858h8l463 858h221l-819 -1444h-211zM352 1266l39 190h170l-39 -190h-170zM762 1266l39 190h170l-39 -190h-170z" />
<glyph unicode="&#x152;" horiz-adv-x="2398" d="M72 616q0 191 61 356.5t169.5 285t264.5 187.5t340 68q174 0 314.5 -73.5t224.5 -204.5l51 240h911l-38 -181h-707l-90 -424h696l-39 -182h-696l-107 -508h738l-39 -180h-942l26 131q-211 -162 -493 -162q-183 0 -330 80.5t-231 228.5t-84 338zM285 616q0 -209 122 -339 t310 -130q136 0 251.5 56t194.5 152.5t123.5 230t44.5 286.5q0 206 -119 334.5t-305 128.5q-182 0 -324.5 -93.5t-220 -257t-77.5 -368.5z" />
<glyph unicode="&#x153;" horiz-adv-x="2060" d="M20 446q0 189 77 339t218.5 235.5t323.5 85.5q136 0 243 -58t167 -163q81 104 199.5 162.5t258.5 58.5q86 -1 158 -25t124 -65t88.5 -96.5t53 -120.5t15 -137.5t-22.5 -145.5h-817q-4 -46 -4 -70q0 -141 80.5 -228t203.5 -87q117 0 196.5 61.5t113.5 165.5h196 q-46 -178 -177 -283.5t-329 -105.5q-136 0 -244.5 60t-168.5 166q-84 -107 -205.5 -166.5t-269.5 -59.5q-207 0 -342.5 132t-135.5 345zM213 446q0 -141 81 -228t204 -87q188 0 305 143t117 361q0 139 -79 224t-202 85q-189 0 -307.5 -140t-118.5 -358zM1141 662h616 q9 70 -8 125t-54 88.5t-85 51t-103 17.5q-132 0 -226 -79t-140 -203z" />
<glyph unicode="&#x178;" horiz-adv-x="1292" d="M186 1475h211l213 -779h8l568 779h250l-766 -1002l-101 -473h-204l102 485zM541 1587l39 191h170l-39 -191h-170zM950 1587l39 191h170l-39 -191h-170z" />
<glyph unicode="&#x2c6;" horiz-adv-x="819" d="M174 1163l361 342h94l221 -342h-152l-133 203l-217 -203h-174z" />
<glyph unicode="&#x2dc;" horiz-adv-x="937" d="M174 1255q131 193 264 193q33 0 73.5 -21.5t71.5 -48t66 -48t58 -21.5q41 0 85 35.5t76 80.5l101 -88q-109 -192 -264 -192q-37 0 -77.5 21.5t-70 48t-64 48t-61.5 21.5q-38 0 -73.5 -28.5t-84.5 -88.5z" />
<glyph unicode="&#x2000;" horiz-adv-x="993" />
<glyph unicode="&#x2001;" horiz-adv-x="1987" />
<glyph unicode="&#x2002;" horiz-adv-x="993" />
<glyph unicode="&#x2003;" horiz-adv-x="1987" />
<glyph unicode="&#x2004;" horiz-adv-x="662" />
<glyph unicode="&#x2005;" horiz-adv-x="496" />
<glyph unicode="&#x2006;" horiz-adv-x="331" />
<glyph unicode="&#x2007;" horiz-adv-x="331" />
<glyph unicode="&#x2008;" horiz-adv-x="248" />
<glyph unicode="&#x2009;" horiz-adv-x="397" />
<glyph unicode="&#x200a;" horiz-adv-x="110" />
<glyph unicode="&#x2010;" horiz-adv-x="733" d="M31 506l35 166h555l-35 -166h-555z" />
<glyph unicode="&#x2011;" horiz-adv-x="733" d="M31 506l35 166h555l-35 -166h-555z" />
<glyph unicode="&#x2012;" horiz-adv-x="733" d="M31 506l35 166h555l-35 -166h-555z" />
<glyph unicode="&#x2013;" horiz-adv-x="1288" d="M61 506l35 166h1049l-35 -166h-1049z" />
<glyph unicode="&#x2014;" horiz-adv-x="2191" d="M61 506l35 166h1952l-35 -166h-1952z" />
<glyph unicode="&#x2018;" horiz-adv-x="405" d="M147 1040l50 232l184 231h147l-143 -231l-49 -232h-189z" />
<glyph unicode="&#x2019;" horiz-adv-x="405" d="M147 1040l144 232l49 231h188l-49 -231l-184 -232h-148z" />
<glyph unicode="&#x201a;" horiz-adv-x="405" d="M-123 -231l143 231l50 231h188l-49 -231l-184 -231h-148z" />
<glyph unicode="&#x201c;" horiz-adv-x="700" d="M168 1040l49 232l184 231h148l-143 -231l-50 -232h-188zM463 1040l49 232l184 231h148l-144 -231l-49 -232h-188z" />
<glyph unicode="&#x201d;" horiz-adv-x="698" d="M127 1040l143 232l49 231h189l-49 -231l-185 -232h-147zM420 1040l143 232l49 231h189l-49 -231l-185 -232h-147z" />
<glyph unicode="&#x201e;" horiz-adv-x="698" d="M-143 -231l143 231l49 231h189l-50 -231l-184 -231h-147zM150 -231l143 231l49 231h188l-49 -231l-184 -231h-147z" />
<glyph unicode="&#x2022;" horiz-adv-x="993" d="M143 664q0 147 104 250.5t249 103.5q147 0 250.5 -103.5t103.5 -250.5q0 -146 -104 -250.5t-250 -104.5q-145 0 -249 104.5t-104 250.5z" />
<glyph unicode="&#x2026;" horiz-adv-x="1773" d="M10 0l51 231h199l-51 -231h-199zM649 0l51 231h199l-51 -231h-199zM1288 0l51 231h199l-51 -231h-199z" />
<glyph unicode="&#x202f;" horiz-adv-x="397" />
<glyph unicode="&#x2039;" horiz-adv-x="509" d="M31 463l301 446h188l-317 -446l143 -463h-168z" />
<glyph unicode="&#x203a;" horiz-adv-x="505" d="M-10 0l313 461l-141 448h168l145 -448l-299 -461h-186z" />
<glyph unicode="&#x205f;" horiz-adv-x="496" />
<glyph unicode="&#x20ac;" horiz-adv-x="1257" d="M31 514l30 160h132q7 75 20 135h-121l33 160h131q84 246 248 395t370 149q204 0 302 -105.5t90 -291.5h-203q2 106 -44 164t-142 57q-133 0 -242 -99.5t-174 -268.5h352l-33 -160h-366q-12 -56 -23 -135h359l-33 -160h-332q5 -167 73.5 -268t190.5 -101q127 0 194 70 t103 213h201q-45 -219 -173 -339t-325 -120q-214 0 -336 149t-127 396h-155z" />
<glyph unicode="&#x2122;" horiz-adv-x="1898" d="M102 1327l31 148h633l-31 -148h-260l-149 -711h-160l149 711h-213zM690 616l182 859h189l127 -644l395 644h213l-182 -859h-158l125 582l-362 -582h-121l-131 617l-127 -617h-150z" />
<glyph unicode="&#x25fc;" horiz-adv-x="1075" d="M0 0v1075h1075v-1075h-1075z" />
</font>
</defs>
</svg>
